Sprint_08100001_forces_filt100Hz.mot
version=1
nRows=33
nColumns=19
inDegrees=yes
endheader
time	R_ground_force_vx	R_ground_force_vy	R_ground_force_vz	R_ground_force_px	R_ground_force_py	R_ground_force_pz	R_ground_torque_x	R_ground_torque_y	R_ground_torque_z	L_ground_force_vx	L_ground_force_vy	L_ground_force_vz	L_ground_force_px	L_ground_force_py	L_ground_force_pz	L_ground_torque_x	L_ground_torque_y	L_ground_torque_z	
2.927000	  0.000000	  0.000000	  0.000000	  0.202139	  0.000000	 -0.207233	  0.000000	  0.000000	  0.000000	  0.000000	  0.000000	  0.000000	  1.165101	  0.000000	 -0.364598	  0.000000	  0.000000	  0.000000
2.927500	  0.000000	  0.000000	  0.000000	  0.204590	  0.000000	 -0.206977	  0.000000	  0.000000	  0.000000	  0.000000	  0.000000	  0.000000	  1.162240	  0.000000	 -0.363844	  0.000000	  0.000000	  0.000000
2.928000	  0.000000	  0.000000	  0.000000	  0.207041	  0.000000	 -0.206721	  0.000000	  0.000000	  0.000000	  0.000000	  0.000000	  0.000000	  1.159379	  0.000000	 -0.363090	  0.000000	  0.000000	  0.000000
2.928500	  0.000000	  0.000000	  0.000000	  0.209492	  0.000000	 -0.206465	  0.000000	  0.000000	  0.000000	  0.000000	  0.000000	  0.000000	  1.156518	  0.000000	 -0.362337	  0.000000	  0.000000	  0.000000
2.929000	  0.000000	  0.000000	  0.000000	  0.211942	  0.000000	 -0.206209	  0.000000	  0.000000	  0.000000	  0.000000	  0.000000	  0.000000	  1.153656	  0.000000	 -0.361583	  0.000000	  0.000000	  0.000000
2.929500	  0.000000	  0.000000	  0.000000	  0.298740	 -0.000000	 -0.236796	  0.000000	  0.000000	  0.000000	  0.000000	  0.000000	  0.000000	  1.150795	  0.000000	 -0.360830	  0.000000	  0.000000	  0.000000
2.930000	  0.000000	  0.000000	  0.000000	  0.385537	 -0.000000	 -0.267383	  0.000000	  0.000000	  0.000000	  0.000000	  0.000000	  0.000000	  1.147934	  0.000000	 -0.360076	  0.000000	  0.000000	  0.000000
2.930500	  0.000000	  0.000000	  0.000000	  0.472334	 -0.000000	 -0.297969	  0.000000	  0.000000	  0.000000	  0.000000	  0.000000	  0.000000	  1.144463	  0.000000	 -0.359046	  0.000000	  0.000000	  0.000000
2.931000	-56.365833	 26.031886	-38.751675	  0.559131	 -0.000000	 -0.328556	  0.000000	 15.031705	  0.000000	  0.000000	  0.000000	  0.000000	  1.140991	  0.000000	 -0.358017	  0.000000	  0.000000	  0.000000
2.931500	-82.834168	 65.831103	-55.499180	  0.645928	  0.000000	 -0.359143	  0.000000	 10.027063	  0.000000	  0.000000	  0.000000	  0.000000	  1.137519	  0.000000	 -0.356987	  0.000000	  0.000000	  0.000000
2.932000	-112.536633	119.640558	-72.159229	  0.732726	  0.000000	 -0.389729	  0.000000	  4.777852	  0.000000	  0.000000	  0.000000	  0.000000	  1.134047	  0.000000	 -0.355958	  0.000000	  0.000000	  0.000000
2.932500	-145.338822	188.554892	-88.363320	  0.819523	  0.000000	 -0.420316	  0.000000	 -0.515730	  0.000000	  0.000000	  0.000000	  0.000000	  1.130575	  0.000000	 -0.354928	  0.000000	  0.000000	  0.000000
2.933000	-181.038644	272.388895	-103.792270	  0.906320	  0.000000	 -0.450903	  0.000000	 -5.783785	  0.000000	  0.000000	  0.000000	  0.000000	  1.127103	  0.000000	 -0.353899	  0.000000	  0.000000	  0.000000
2.933500	-219.413828	369.251005	-118.150366	  0.993117	  0.000000	 -0.481489	  0.000000	-11.034393	  0.000000	  0.000000	  0.000000	  0.000000	  1.123631	  0.000000	 -0.352869	  0.000000	  0.000000	  0.000000
2.934000	-260.268679	475.773763	-131.117305	  0.983912	  0.000000	 -0.473840	  0.000000	-16.323505	  0.000000	  0.000000	  0.000000	  0.000000	  1.120159	  0.000000	 -0.351840	  0.000000	  0.000000	  0.000000
2.934500	-303.471921	587.910275	-142.290011	  0.974067	  0.000000	 -0.467135	  0.000000	-21.719933	  0.000000	  0.000000	  0.000000	  0.000000	  1.116687	  0.000000	 -0.350810	  0.000000	  0.000000	  0.000000
2.935000	-348.978376	701.575188	-151.132307	  0.963724	  0.000000	 -0.461419	  0.000000	-27.260501	  0.000000	  0.000000	  0.000000	  0.000000	  1.113215	  0.000000	 -0.349781	  0.000000	  0.000000	  0.000000
2.935500	-396.826153	812.922282	-156.952649	  0.953026	  0.000000	 -0.456586	  0.000000	-32.904797	  0.000000	  0.000000	  0.000000	  0.000000	  1.109207	  0.000000	 -0.349426	  0.000000	  0.000000	  0.000000
2.936000	-447.099873	918.560200	-158.933169	  0.942079	  0.000000	 -0.452416	  0.000000	-38.504064	  0.000000	  0.000000	  0.000000	  0.000000	  1.105198	  0.000000	 -0.349071	  0.000000	  0.000000	  0.000000
2.936500	-499.858497	1015.808585	-156.215852	  0.930905	  0.000000	 -0.448624	  0.000000	-43.790260	  0.000000	  0.000000	  0.000000	  0.000000	  1.101189	  0.000000	 -0.348716	  0.000000	  0.000000	  0.000000
2.937000	-555.034543	1102.893997	-148.033456	  0.919423	  0.000000	 -0.444890	  0.000000	-48.384817	  0.000000	  0.000000	  0.000000	  0.000000	  1.097180	  0.000000	 -0.348362	  0.000000	  0.000000	  0.000000
2.937500	-612.319411	1179.016485	-133.855873	  0.907467	  0.000000	 -0.440900	  0.000000	-51.827472	  0.000000	  0.000000	  0.000000	  0.000000	  1.093171	  0.000000	 -0.348007	  0.000000	  0.000000	  0.000000
2.938000	-671.058254	1244.248864	-113.505161	  0.894848	  0.000000	 -0.436381	  0.000000	-53.626946	  0.000000	  0.000000	  0.000000	  0.000000	  1.089162	  0.000000	 -0.347652	  0.000000	  0.000000	  0.000000
2.938500	-730.176530	1299.287037	-87.209041	  0.881454	  0.000000	 -0.431131	  0.000000	-53.328678	  0.000000	  0.000000	  0.000000	  0.000000	  1.085153	  0.000000	 -0.347297	  0.000000	  0.000000	  0.000000
2.939000	-788.160153	1345.126261	-55.578007	  0.867356	  0.000000	 -0.425051	  0.000000	-50.586999	  0.000000	  0.000000	  0.000000	  0.000000	  1.081145	  0.000000	 -0.346943	  0.000000	  0.000000	  0.000000
2.939500	-843.096021	1382.742906	-19.513910	  0.852903	  0.000000	 -0.418154	  0.000000	-45.225056	  0.000000	  0.000000	  0.000000	  0.000000	  1.077136	  0.000000	 -0.346588	  0.000000	  0.000000	  0.000000
2.940000	-892.764118	1412.869539	 19.919068	  0.838760	  0.000000	 -0.410562	  0.000000	-37.267822	  0.000000	  0.000000	  0.000000	  0.000000	  1.073127	  0.000000	 -0.346233	  0.000000	  0.000000	  0.000000
2.940500	-934.769459	1435.905703	 61.625560	  0.825889	  0.000000	 -0.402491	  0.000000	-26.942640	  0.000000	  0.000000	  0.000000	  0.000000	  1.068885	  0.000000	 -0.346055	  0.000000	  0.000000	  0.000000
2.941000	-966.698935	1451.961965	104.571391	  0.815453	  0.000000	 -0.394222	  0.000000	-14.647488	  0.000000	  0.000000	  0.000000	  0.000000	  1.064644	  0.000000	 -0.345876	  0.000000	  0.000000	  0.000000
2.941500	-986.290395	1461.014482	147.816340	  0.808679	  0.000000	 -0.386075	  0.000000	 -0.896069	  0.000000	  0.000000	  0.000000	  0.000000	  1.060403	  0.000000	 -0.345698	  0.000000	  0.000000	  0.000000
2.942000	-991.601729	1463.127115	190.485944	  0.806719	  0.000000	 -0.378390	  0.000000	 13.753891	  0.000000	  0.000000	  0.000000	  0.000000	  1.056161	  0.000000	 -0.345519	  0.000000	  0.000000	  0.000000
2.942500	-981.162591	1458.694155	231.708375	  0.810532	  0.000000	 -0.371523	  0.000000	 28.781918	  0.000000	  0.000000	  0.000000	  0.000000	  1.051920	  0.000000	 -0.345341	  0.000000	  0.000000	  0.000000
2.943000	-954.084859	1448.651423	270.570012	  0.820822	  0.000000	 -0.365839	  0.000000	 43.783979	  0.000000	  0.000000	  0.000000	  0.000000	  1.047679	  0.000000	 -0.345162	  0.000000	  0.000000	  0.000000
